<svg width="26" height="23" viewBox="0 0 26 23" fill="none" xmlns="http://www.w3.org/2000/svg">
<g id="Group 218">
<path id="Vector" d="M25.5742 11.2261C24.5701 9.13975 23.3752 7.43823 21.9895 6.12152L20.5362 7.55486C21.7213 8.67183 22.7535 10.133 23.6461 11.9529C21.2697 16.8039 17.8963 19.1083 13.2862 19.1083C11.9024 19.1083 10.6279 18.8981 9.46247 18.4778L7.88778 20.0309C9.50636 20.768 11.3058 21.1366 13.2862 21.1366C18.7761 21.1366 22.8721 18.3167 25.5742 12.6769C25.6828 12.4501 25.7391 12.2023 25.7391 11.9515C25.7391 11.7006 25.6828 11.4529 25.5742 11.2261V11.2261ZM23.7584 2.19338L22.5407 0.991054C22.5195 0.9701 22.4943 0.953478 22.4666 0.942136C22.4388 0.930795 22.4091 0.924957 22.3791 0.924957C22.349 0.924957 22.3193 0.930795 22.2916 0.942136C22.2638 0.953478 22.2386 0.9701 22.2174 0.991054L19.0934 4.07069C17.3711 3.20303 15.4353 2.7692 13.2862 2.7692C7.79637 2.7692 3.7004 5.5891 0.998313 11.2289C0.889703 11.4557 0.833374 11.7034 0.833374 11.9543C0.833374 12.2051 0.889703 12.4529 0.998313 12.6797C2.07782 14.9221 3.37744 16.7195 4.8972 18.0719L1.87463 21.0521C1.83181 21.0943 1.80776 21.1516 1.80776 21.2114C1.80776 21.2711 1.83181 21.3284 1.87463 21.3707L3.094 22.5733C3.13685 22.6155 3.19495 22.6392 3.25553 22.6392C3.3161 22.6392 3.3742 22.6155 3.41705 22.5733L23.7584 2.51228C23.7796 2.49135 23.7965 2.46649 23.808 2.43913C23.8195 2.41177 23.8254 2.38245 23.8254 2.35283C23.8254 2.32322 23.8195 2.29389 23.808 2.26653C23.7965 2.23917 23.7796 2.21432 23.7584 2.19338ZM2.92633 11.9529C5.30566 7.10187 8.67898 4.7975 13.2862 4.7975C14.8441 4.7975 16.2605 5.06118 17.5456 5.59727L15.5376 7.57767C14.5866 7.07726 13.4978 6.89154 12.4316 7.04791C11.3655 7.20428 10.3786 7.69447 9.6164 8.44616C8.85424 9.19785 8.35723 10.1712 8.19868 11.2227C8.04012 12.2742 8.22843 13.3481 8.73582 14.286L6.35307 16.636C5.0343 15.488 3.89749 13.9327 2.92633 11.9529ZM9.9729 11.9529C9.9734 11.4561 10.0927 10.9665 10.3211 10.5238C10.5495 10.081 10.8806 9.69769 11.2875 9.40486C11.6943 9.11203 12.1655 8.91799 12.6627 8.83849C13.1598 8.759 13.669 8.79629 14.1488 8.94734L10.1246 12.9163C10.0237 12.6049 9.97253 12.2798 9.9729 11.9529V11.9529Z" fill="black" fill-opacity="0.44"/>
<path id="Vector_2" d="M13.172 15.1078C13.0731 15.1078 12.9757 15.1033 12.8792 15.0946L11.3705 16.5826C12.2779 16.9253 13.2666 17.0015 14.217 16.8019C15.1673 16.6023 16.0387 16.1354 16.7258 15.4578C17.4129 14.7801 17.8863 13.9207 18.0887 12.9833C18.2911 12.046 18.2139 11.0709 17.8663 10.176L16.3576 11.664C16.3665 11.7592 16.3711 11.8552 16.3711 11.9527C16.3713 12.3671 16.2887 12.7775 16.128 13.1604C15.9673 13.5433 15.7317 13.8912 15.4346 14.1842C15.1375 14.4773 14.7847 14.7096 14.3965 14.8681C14.0082 15.0266 13.5921 15.1081 13.172 15.1078V15.1078Z" fill="black" fill-opacity="0.44"/>
</g>
</svg>
