<svg width="31" height="31" viewBox="0 0 31 31" fill="none" xmlns="http://www.w3.org/2000/svg">
<g id="person_24px">
<path id="icon/social/person_24px" fill-rule="evenodd" clip-rule="evenodd" d="M15.2865 5.5918C12.5344 5.5918 10.3053 7.86604 10.3053 10.6739C10.3053 13.4818 12.5344 15.756 15.2865 15.756C18.0385 15.756 20.2676 13.4818 20.2676 10.6739C20.2676 7.86604 18.0385 5.5918 15.2865 5.5918ZM17.7769 10.6739C17.7769 9.27632 16.6561 8.13285 15.2863 8.13285C13.9165 8.13285 12.7957 9.27632 12.7957 10.6739C12.7957 12.0715 13.9165 13.215 15.2863 13.215C16.6561 13.215 17.7769 12.0715 17.7769 10.6739ZM22.758 23.3793C22.509 22.4772 18.6486 20.8383 15.2863 20.8383C11.9365 20.8383 8.10101 22.4645 7.81459 23.3793H22.758ZM5.32388 23.3795C5.32388 19.9998 11.9613 18.2973 15.2862 18.2973C18.6111 18.2973 25.2485 19.9998 25.2485 23.3795V25.9205H5.32388V23.3795Z" fill="black" fill-opacity="0.44"/>
</g>
</svg>
